<?xml version="1.0" encoding="UTF-8" standalone="no"?>
<!-- Created with Inkscape (http://www.inkscape.org/) -->

<svg
   xmlns:dc="http://purl.org/dc/elements/1.1/"
   xmlns:cc="http://creativecommons.org/ns#"
   xmlns:rdf="http://www.w3.org/1999/02/22-rdf-syntax-ns#"
   xmlns:svg="http://www.w3.org/2000/svg"
   xmlns="http://www.w3.org/2000/svg"
   xmlns:sodipodi="http://sodipodi.sourceforge.net/DTD/sodipodi-0.dtd"
   xmlns:inkscape="http://www.inkscape.org/namespaces/inkscape"
   width="43.983356mm"
   height="45.055035mm"
   viewBox="0 0 43.983356 45.055035"
   version="1.1"
   id="svg8"
   inkscape:version="0.92.0 r15299"
   sodipodi:docname="lasersaur.svg"
   inkscape:export-filename="D:\github\pack-openbadge-fablab\unsorted\lasersaurWarning.png"
   inkscape:export-xdpi="300"
   inkscape:export-ydpi="300">
  <defs
     id="defs2" />
  <sodipodi:namedview
     id="base"
     pagecolor="#ffffff"
     bordercolor="#666666"
     borderopacity="1.0"
     inkscape:pageopacity="0.0"
     inkscape:pageshadow="2"
     inkscape:zoom="2.8"
     inkscape:cx="86.575032"
     inkscape:cy="89.895328"
     inkscape:document-units="mm"
     inkscape:current-layer="layer1"
     showgrid="false"
     inkscape:window-width="1280"
     inkscape:window-height="977"
     inkscape:window-x="-4"
     inkscape:window-y="-4"
     inkscape:window-maximized="1"
     fit-margin-top="5"
     fit-margin-left="5"
     fit-margin-right="5"
     fit-margin-bottom="5" />
  <metadata
     id="metadata5">
    <rdf:RDF>
      <cc:Work
         rdf:about="">
        <dc:format>image/svg+xml</dc:format>
        <dc:type
           rdf:resource="http://purl.org/dc/dcmitype/StillImage" />
        <dc:title></dc:title>
      </cc:Work>
    </rdf:RDF>
  </metadata>
  <g
     inkscape:label="Layer 1"
     inkscape:groupmode="layer"
     id="layer1"
     transform="translate(-74.626257,-64.908233)">
    <path
       sodipodi:type="star"
       style="opacity:1;vector-effect:none;fill:#fff400;fill-opacity:1;stroke:#000000;stroke-width:2.22900009;stroke-linecap:round;stroke-linejoin:round;stroke-miterlimit:10;stroke-dasharray:none;stroke-dashoffset:0;stroke-opacity:1;paint-order:normal"
       id="path4496"
       sodipodi:sides="3"
       sodipodi:cx="96.617935"
       sodipodi:cy="88.797035"
       sodipodi:r1="17.774414"
       sodipodi:r2="8.887208"
       sodipodi:arg1="-1.5707963"
       sodipodi:arg2="-0.52359878"
       inkscape:flatsided="true"
       inkscape:rounded="0"
       inkscape:randomized="0"
       d="m 96.617936,71.022621 15.393094,26.661622 -30.786189,-10e-7 z"
       inkscape:transform-center-y="-4.4436052" />
    <path
       id="path4535"
       style="fill:#000000;stroke-width:0.09844767"
       d="m 89.713706,97.49219 c 0.508531,-0.254526 1.032297,-0.718135 1.095508,-0.969678 0.07135,-0.283923 -0.188691,-0.627091 -0.475181,-0.627091 -0.102539,0 -0.30083,0.121751 -0.440625,0.270567 l -0.254175,0.270567 0.07607,-0.24597 c 0.206168,-0.666717 0.623002,-0.902027 1.132098,-0.639083 0.162068,0.08371 0.294673,0.132704 0.294673,0.10888 0,-0.02383 -0.1388,-0.406349 -0.308444,-0.850063 -0.290894,-0.760848 -0.333384,-0.817769 -0.746747,-1.000396 -0.420902,-0.18596 -0.466898,-0.187293 -1.158588,-0.03358 -0.868638,0.193018 -1.586584,0.535746 -1.978307,0.94438 -0.250118,0.260922 -0.289293,0.375901 -0.284817,0.835909 0.0041,0.427144 0.06301,0.615018 0.295521,0.943262 0.778374,1.098883 1.802541,1.468039 2.753022,0.99231 z m -1.748101,0.362727 c -0.58821,-0.138499 -1.471688,-0.631093 -1.866662,-1.040786 -0.726678,-0.753755 -0.95304,-1.744188 -0.580997,-2.542109 0.932915,-2.000836 7.297352,-4.629655 10.118665,-4.179496 0.362422,0.05782 1.194973,0.307667 1.850114,0.555198 1.365326,0.515859 2.293555,0.611147 2.888755,0.296543 0.3959,-0.209269 0.54586,-0.499385 0.75854,-1.467548 0.12756,-0.580663 0.23685,-0.830902 0.46039,-1.054168 0.47829,-0.477711 1.371,-0.603284 1.67635,-0.235805 0.17158,0.206479 -0.0457,0.62475 -0.32451,0.62475 -0.21239,0 -0.21307,0.0034 -0.0267,0.13984 0.17874,0.130713 0.16074,0.147516 -0.2757,0.257399 -0.44008,0.110803 -0.46275,0.132452 -0.39448,0.376699 0.13238,0.473505 0.0594,1.331636 -0.15422,1.814 -0.46536,1.05075 -1.73502,2.026019 -3.026236,2.324548 l -0.495577,0.114584 -0.12009,0.632295 c -0.169206,0.890881 -0.156601,1.763756 0.02765,1.916504 0.08127,0.06737 0.147762,0.161338 0.147762,0.208824 0,0.133768 -0.751606,0.101815 -0.861929,-0.03664 -0.05389,-0.06763 -0.236255,-0.571424 -0.405243,-1.119513 -0.168987,-0.54809 -0.385207,-1.08915 -0.480489,-1.202354 -0.171266,-0.203485 -0.185558,-0.204097 -1.256819,-0.05371 -0.595969,0.08366 -1.600203,0.159845 -2.23163,0.169285 l -1.148049,0.01716 -0.05759,0.344357 c -0.125914,0.752946 -0.06898,1.436981 0.13494,1.6213 0.107076,0.09679 0.170957,0.214334 0.141948,0.26122 -0.08413,0.135965 -0.667702,0.09862 -0.890094,-0.05696 -0.189215,-0.132371 -0.214121,-0.119447 -0.360433,0.186999 -0.435203,0.911525 -1.942564,1.434881 -3.247647,1.127591 z"
       inkscape:connector-curvature="0" />
    <path
       id="path4509"
       style="fill:#000000;stroke-width:0.09029782"
       d="m 111.32079,102.88568 v -1.98307 l 0.38029,-0.1024 c 0.43211,-0.11635 1.46573,-0.14778 1.75241,-0.0533 0.15888,0.0524 0.18161,0.11041 0.13412,0.3426 l -0.0572,0.27956 -0.72105,0.0116 -0.72105,0.0116 -0.0245,1.73823 -0.0245,1.73824 h -0.35924 -0.35925 v -1.98307 z m -15.440924,0.006 v -1.97754 l 0.474063,-0.11542 c 0.535381,-0.13035 1.670656,-0.14174 1.794396,-0.018 0.04485,0.0448 0.05774,0.20091 0.02865,0.34679 l -0.0529,0.26525 h -0.738334 -0.738337 l -0.02453,1.73823 -0.02453,1.73824 h -0.359239 -0.359243 z m -16.253609,-0.77653 v -2.754086 h 0.361192 0.361191 v 2.438036 2.43805 h 1.309319 1.309318 v 0.31604 0.31604 h -1.67051 -1.67051 z m 27.830413,2.67037 c -0.30397,-0.14258 -0.43033,-0.27502 -0.58525,-0.61343 -0.17755,-0.38782 -0.19776,-0.58268 -0.19928,-1.9215 l -0.002,-1.48991 0.32657,-0.0273 0.32658,-0.0273 0.042,1.42693 c 0.0585,1.98355 0.20072,2.22719 1.27081,2.17614 l 0.56235,-0.0269 0.0245,-1.78338 0.0245,-1.78338 h 0.35929 0.35928 v 2.02204 c 0,1.84042 -0.0142,2.02797 -0.15802,2.08801 -0.0869,0.0363 -0.56436,0.083 -1.061,0.10388 -0.76807,0.0322 -0.9609,0.0107 -1.29064,-0.14394 z m -2.72762,-1.0805 c 0,-0.7054 -0.0259,-0.73225 -0.70719,-0.73171 -0.26078,2.1e-4 -0.53344,0.0686 -0.715,0.17927 -0.25152,0.15336 -0.29347,0.23001 -0.29347,0.53633 0,0.50418 0.22272,0.63853 1.05852,0.63853 h 0.65714 z m -1.79953,1.09634 c -0.46421,-0.2367 -0.67324,-0.57668 -0.67324,-1.09499 0,-0.47729 0.17061,-0.82136 0.52115,-1.05105 0.29527,-0.19347 1.11033,-0.31193 1.56905,-0.22804 l 0.38257,0.07 v -0.35317 c 0,-0.25296 -0.0618,-0.41502 -0.21796,-0.57114 -0.29424,-0.29424 -0.61258,-0.35918 -1.21651,-0.24819 -0.27881,0.0512 -0.51234,0.0875 -0.51896,0.0806 -0.007,-0.007 -0.0398,-0.14228 -0.0738,-0.30081 -0.0593,-0.2767 -0.0479,-0.29117 0.28292,-0.36119 0.57884,-0.12252 1.48985,-0.0732 1.81908,0.0984 0.53878,0.28087 0.6433,0.67873 0.64558,2.4576 l 0.002,1.54536 -0.41894,0.0574 c -0.81525,0.11175 -1.77658,0.0657 -2.10297,-0.10074 z m -4.011275,0.0502 c -0.227099,-0.0827 -0.250967,-0.12636 -0.202228,-0.37005 0.07096,-0.35478 0.0738,-0.35672 0.362777,-0.24685 0.134281,0.0511 0.519643,0.0928 0.856358,0.0928 0.500578,0 0.642468,-0.0334 0.778118,-0.18333 0.13044,-0.14413 0.14791,-0.23584 0.0817,-0.42891 -0.0656,-0.19146 -0.26815,-0.33514 -0.918816,-0.65193 -0.938572,-0.45695 -1.136875,-0.67081 -1.136875,-1.22607 0,-0.79302 0.512597,-1.17089 1.565161,-1.15379 0.93238,0.0152 1.07461,0.0837 0.97312,0.46892 -0.0615,0.23341 -0.11398,0.28772 -0.23279,0.24088 -0.32585,-0.12846 -1.059509,-0.14295 -1.282118,-0.0253 -0.28709,0.1517 -0.352289,0.60197 -0.117252,0.80977 0.08932,0.079 0.4812,0.27531 0.87085,0.43632 0.86574,0.35774 1.08194,0.62877 1.0254,1.28546 -0.066,0.76621 -0.53696,1.06438 -1.663225,1.05296 -0.386489,-0.004 -0.818578,-0.0493 -0.9602,-0.10088 z m -4.894153,-2.71248 c -0.220607,-1.00442 -1.31555,-1.18966 -1.850092,-0.31298 -0.348795,0.57205 -0.301303,0.60513 0.868658,0.60513 h 1.045599 z m -1.720316,2.64825 c -0.783187,-0.35567 -1.186719,-1.16788 -1.093115,-2.20016 0.115734,-1.27634 1.048496,-2.09205 2.195552,-1.92004 0.836592,0.12546 1.294221,0.71728 1.369634,1.77126 l 0.04471,0.62492 h -1.411749 c -1.40394,0 -1.411747,0.001 -1.411412,0.20317 3.55e-4,0.29841 0.313468,0.76097 0.623271,0.92117 0.301563,0.15595 1.073702,0.18428 1.521562,0.0558 0.212203,-0.0609 0.293212,-0.0546 0.294104,0.0226 7.11e-4,0.0586 0.02439,0.19284 0.05268,0.29828 0.04158,0.15493 -0.0046,0.21124 -0.240452,0.29347 -0.463932,0.16173 -1.517558,0.12355 -1.944788,-0.0705 z m -4.492163,0.0642 c -0.227099,-0.0827 -0.250967,-0.12636 -0.202228,-0.37005 0.07095,-0.35478 0.0738,-0.35672 0.362777,-0.24685 0.134281,0.0511 0.519643,0.0928 0.856357,0.0928 0.500577,0 0.642466,-0.0334 0.778122,-0.18333 0.130438,-0.14413 0.147911,-0.23584 0.08172,-0.42891 -0.06564,-0.19146 -0.268149,-0.33514 -0.91882,-0.65193 -0.938571,-0.45695 -1.136874,-0.67081 -1.136874,-1.22607 0,-0.78968 0.506844,-1.16247 1.56516,-1.15118 0.928994,0.01 1.074935,0.0798 0.973119,0.46631 -0.06149,0.23341 -0.113978,0.28772 -0.232787,0.24088 -0.325854,-0.12846 -1.05951,-0.14295 -1.282119,-0.0253 -0.28709,0.1517 -0.35229,0.60197 -0.117252,0.80977 0.08932,0.079 0.481202,0.27531 0.870848,0.43632 0.865743,0.35774 1.081945,0.62877 1.025406,1.28546 -0.06597,0.76621 -0.536963,1.06438 -1.663229,1.05296 -0.386489,-0.004 -0.818578,-0.0493 -0.9602,-0.10088 z m -1.864508,-1.1465 c 0,-0.69966 -0.02968,-0.73204 -0.671144,-0.73204 -0.979229,0 -1.461543,0.5887 -0.938477,1.14547 0.17279,0.18393 0.281087,0.20899 0.902979,0.20899 h 0.706642 z m -1.666746,1.19453 c -0.539212,-0.15493 -0.861593,-0.6055 -0.861593,-1.20419 0,-0.877 0.601832,-1.29863 1.830863,-1.28267 l 0.703904,0.009 -0.05847,-0.33394 c -0.03217,-0.18367 -0.156435,-0.43552 -0.276161,-0.55968 -0.178251,-0.18485 -0.303186,-0.22545 -0.689695,-0.22407 -0.259607,10e-4 -0.604072,0.0304 -0.76548,0.0655 -0.286786,0.0623 -0.293468,0.0567 -0.293468,-0.24827 0,-0.37725 0.171729,-0.44553 1.128723,-0.44879 0.744449,-0.002 1.15589,0.19096 1.439859,0.67718 0.158331,0.27111 0.186625,0.51013 0.216957,1.83281 0.02257,0.98451 0.0014,1.55436 -0.05959,1.6155 -0.101528,0.10153 -2.022691,0.18574 -2.315845,0.10151 z"
       inkscape:connector-curvature="0" />
    <path
       style="fill:#000000;fill-rule:evenodd;stroke:#000000;stroke-width:0.26458332px;stroke-linecap:butt;stroke-linejoin:miter;stroke-opacity:1"
       d="m 101.93545,96.719865 c 0,0 1.37611,-0.218556 2.52771,-1.913504 0.37798,-0.921319 0.4961,0.14174 0.77958,0.118116 0.28348,-0.02363 0.37798,-0.33073 0.37798,-0.472469 0,-0.141743 1.01581,1.913504 2.78758,2.291479 1.77176,0.377976 -6.47285,-0.02362 -6.47285,-0.02362 z"
       id="path4541"
       inkscape:connector-curvature="0"
       sodipodi:nodetypes="cccsccc" />
    <g
       id="g4589"
       transform="translate(-8.3820651,40.224064)">
      <circle
         r="1.6704344"
         cy="43.561672"
         cx="105"
         id="path4545"
         style="opacity:1;vector-effect:none;fill:#000000;fill-opacity:1;stroke:#000000;stroke-width:0.37652025;stroke-linecap:round;stroke-linejoin:round;stroke-miterlimit:10;stroke-dasharray:none;stroke-dashoffset:0;stroke-opacity:1;paint-order:normal" />
      <path
         inkscape:connector-curvature="0"
         id="path4547"
         d="M 105,38.684005 V 48.43934"
         style="fill:none;fill-rule:evenodd;stroke:#000000;stroke-width:0.465;stroke-linecap:round;stroke-linejoin:round;stroke-miterlimit:4;stroke-dasharray:none;stroke-opacity:1" />
      <path
         inkscape:connector-curvature="0"
         id="path4551"
         d="m 100.12233,43.561671 9.75534,3e-6"
         style="fill:none;fill-rule:evenodd;stroke:#000000;stroke-width:0.465;stroke-linecap:round;stroke-linejoin:round;stroke-miterlimit:4;stroke-dasharray:none;stroke-opacity:1" />
      <g
         id="g4563">
        <path
           inkscape:connector-curvature="0"
           id="path4549"
           d="m 101.55097,40.112641 6.89806,6.898063"
           style="fill:none;fill-rule:evenodd;stroke:#000000;stroke-width:0.465;stroke-linecap:round;stroke-linejoin:round;stroke-miterlimit:4;stroke-dasharray:none;stroke-opacity:1" />
        <path
           inkscape:connector-curvature="0"
           id="path4553"
           d="m 101.55097,47.010705 6.89806,-6.898065"
           style="fill:none;fill-rule:evenodd;stroke:#000000;stroke-width:0.465;stroke-linecap:round;stroke-linejoin:round;stroke-miterlimit:4;stroke-dasharray:none;stroke-opacity:1" />
      </g>
      <g
         transform="matrix(0.24650356,-0.59511225,0.59511225,0.24650356,53.193041,95.310351)"
         id="g4569">
        <path
           style="fill:none;fill-rule:evenodd;stroke:#000000;stroke-width:0.465;stroke-linecap:round;stroke-linejoin:round;stroke-miterlimit:4;stroke-dasharray:none;stroke-opacity:1"
           d="m 101.55097,40.112641 6.89806,6.898063"
           id="path4565"
           inkscape:connector-curvature="0" />
        <path
           style="fill:none;fill-rule:evenodd;stroke:#000000;stroke-width:0.465;stroke-linecap:round;stroke-linejoin:round;stroke-miterlimit:4;stroke-dasharray:none;stroke-opacity:1"
           d="m 101.55097,47.010705 6.89806,-6.898065"
           id="path4567"
           inkscape:connector-curvature="0" />
      </g>
      <g
         id="g4575"
         transform="matrix(-0.24650357,-0.59511225,0.59511225,-0.24650357,104.95879,116.78656)">
        <path
           inkscape:connector-curvature="0"
           id="path4571"
           d="m 101.55097,40.112641 6.89806,6.898063"
           style="fill:none;fill-rule:evenodd;stroke:#000000;stroke-width:0.465;stroke-linecap:round;stroke-linejoin:round;stroke-miterlimit:4;stroke-dasharray:none;stroke-opacity:1" />
        <path
           inkscape:connector-curvature="0"
           id="path4573"
           d="m 101.55097,47.010705 6.89806,-6.898065"
           style="fill:none;fill-rule:evenodd;stroke:#000000;stroke-width:0.465;stroke-linecap:round;stroke-linejoin:round;stroke-miterlimit:4;stroke-dasharray:none;stroke-opacity:1" />
      </g>
    </g>
  </g>
</svg>
